<?xml version="1.0" encoding="utf-8"?><!-- Uploaded to: SVG Repo, www.svgrepo.com, Generator: SVG Repo Mixer Tools -->
<svg fill="#000000" width="800px" height="800px" viewBox="0 0 24 24" id="cashier-left" data-name="Flat Color" xmlns="http://www.w3.org/2000/svg" class="icon flat-color"><path id="secondary" d="M10,12a1,1,0,0,0,1-1V6A1,1,0,0,0,9,6v5A1,1,0,0,0,10,12Z" style="fill: rgb(44, 169, 188);"></path><path id="primary" d="M7,2h6a2,2,0,0,1,2,2V5a2,2,0,0,1-2,2H7A2,2,0,0,1,5,5V4A2,2,0,0,1,7,2ZM3,12v6a1,1,0,0,0,1,1H20a1,1,0,0,0,1-1V12a2,2,0,0,0-2-2H5A2,2,0,0,0,3,12Z" style="fill: rgb(0, 0, 0);"></path><path id="secondary-2" data-name="secondary" d="M3,17H21a1,1,0,0,1,1,1v2a2,2,0,0,1-2,2H4a2,2,0,0,1-2-2V18A1,1,0,0,1,3,17Z" style="fill: rgb(44, 169, 188);"></path></svg>